<?xml version="1.0" encoding="utf-8"?>
<!-- Generator: Adobe Illustrator 23.1.0, SVG Export Plug-In . SVG Version: 6.00 Build 0)  -->
<svg version="1.1" id="Layer_1" xmlns="http://www.w3.org/2000/svg" xmlns:xlink="http://www.w3.org/1999/xlink" x="0px" y="0px"
	 viewBox="0 0 512 512" style="enable-background:new 0 0 512 512;" xml:space="preserve">
<style type="text/css">
	.st0{fill:#006749;}
	.st1{fill:#808080;}
</style>
<g>
	<g>
		<path class="st0" d="M256,0C114.8,0,0,114.8,0,256s114.8,256,256,256s256-114.8,256-256S397.2,0,256,0z M256,480
			C132.5,480,32,379.5,32,256S132.5,32,256,32s224,100.5,224,224S379.5,480,256,480z"/>
	</g>
</g>
<g>
	<g>
		<path class="st1" d="M256,112c-69.7,0-128,49.9-141.2,115.8l-22-29.3l-25.6,19.2l48,64c3.1,4.2,8,6.4,12.8,6.4
			c3.3,0,6.7-1,9.6-3.2l64-48l-19.2-25.6l-37,27.7c8.3-53.7,54.6-95,110.6-95c61.8,0,112,50.2,112,112s-50.2,112-112,112v32
			c79.4,0,144-64.6,144-144S335.4,112,256,112z"/>
	</g>
</g>
</svg>
